<?xml version="1.0" encoding="UTF-8" standalone="no"?>
<!DOCTYPE svg PUBLIC "-//W3C//DTD SVG 1.1//EN" "http://www.w3.org/Graphics/SVG/1.1/DTD/svg11.dtd">
<svg version="1.1" xmlns="http://www.w3.org/2000/svg" xmlns:xlink="http://www.w3.org/1999/xlink" preserveAspectRatio="xMidYMid meet" viewBox="0 0 432 104" width="432" height="104"><defs><path d="M32.23 -0.22L45.31 103.54C81.25 100.14 101.21 98.26 105.2 97.88C105.2 97.88 111.99 97.5 114.14 92.83C115.63 89.59 113.8 84.96 113.8 84.96C111.89 78.87 96.54 30.19 94.62 24.11C94.62 24.11 93.91 21.95 93.14 21.1C92.3 20.18 89.61 19.22 89.61 19.22C81.96 16.63 62.84 10.15 32.23 -0.22ZM86.24 26.64C95.04 57.77 99.92 75.07 100.9 78.52C100.9 78.52 101.94 81.44 100.92 82.37C99.63 83.55 96.52 83.42 96.52 83.42C94.05 83.39 81.67 83.22 59.38 82.93L48.15 14.99L86.24 26.64Z" id="a7l20IgrZ"></path><path d="M131.6 47.06L165.37 47.06L165.37 55.5L142.49 55.5L142.49 67.21L163.74 67.21L163.74 75.66L142.49 75.66L142.49 89L166.19 89L166.19 97.44L131.6 97.44L131.6 47.06Z" id="i7RX0Mpbjy"></path><path d="M195.81 47.06L206.43 47.06C206.43 73.04 206.43 87.47 206.43 90.36C206.25 92.91 206.34 95.26 206.7 97.44C205.64 97.44 197.14 97.44 196.08 97.44C196.08 96.9 195.99 96.08 195.81 94.99C195.63 94.09 195.63 93.27 195.81 92.54C193.63 95.99 190.09 97.81 185.19 97.99C175.74 97.62 170.66 91.64 169.93 80.01C170.48 68.4 175.93 62.22 186.28 61.49C190.09 61.68 193.27 63.31 195.81 66.4C195.81 63.82 195.81 57.37 195.81 47.06ZM188.46 91.45C192.81 91.27 195.27 87.46 195.81 80.01C195.27 72.57 192.81 68.67 188.46 68.3C183.19 68.3 180.65 72.21 180.83 80.01C180.65 87.82 183.19 91.64 188.46 91.45Z" id="b12vsFIFOr"></path><path d="M234.42 93.09C232.06 96.36 228.51 97.99 223.79 97.99C217.44 97.62 213.54 95.18 212.09 90.64C211.54 89.18 211.36 87.37 211.54 85.19C211.54 83.66 211.54 76.04 211.54 62.31L221.89 62.31C221.89 75.06 221.89 82.14 221.89 83.56C222.07 89 224.16 91.64 228.16 91.45C231.96 91.09 234.05 88.46 234.42 83.56C234.42 82.14 234.42 75.06 234.42 62.31L245.04 62.31C245.04 79.63 245.04 89.26 245.04 91.18C244.86 92.09 244.86 93.18 245.04 94.45C245.22 95.72 245.31 96.72 245.31 97.44C244.62 97.44 241.17 97.44 234.96 97.44C234.64 94.83 234.46 93.38 234.42 93.09Z" id="d5Cb7lFV3X"></path><path d="M304.03 47.06C304.03 47.06 304.03 47.06 304.03 47.06C304.03 52.45 304.03 55.45 304.03 56.04C304.03 56.04 304.03 56.04 304.03 56.04C297.33 56.04 293.6 56.04 292.86 56.04C292.86 56.04 292.86 56.04 292.86 56.04C292.86 50.65 292.86 47.66 292.86 47.06C292.86 47.06 292.86 47.06 292.86 47.06C299.56 47.06 303.28 47.06 304.03 47.06Z" id="e74oyPiqfO"></path><path d="M303.76 62.31C303.76 62.31 303.76 62.31 303.76 62.31C303.76 83.39 303.76 95.1 303.76 97.44C303.76 97.44 303.76 97.44 303.76 97.44C297.38 97.44 293.84 97.44 293.14 97.44C293.14 97.44 293.14 97.44 293.14 97.44C293.14 76.36 293.14 64.65 293.14 62.31C293.14 62.31 293.14 62.31 293.14 62.31C299.51 62.31 303.05 62.31 303.76 62.31Z" id="f1nv8pCchO"></path><path d="M327.38 71.84C327.2 69.66 325.66 68.48 322.76 68.3C319.85 68.3 318.48 69.39 318.67 71.57C318.67 73.03 320.85 74.39 325.21 75.66C334.1 78.02 338.55 81.83 338.55 87.09C337.82 93.81 332.56 97.44 322.75 97.99C312.76 97.62 307.59 94.09 307.23 87.37C308.21 87.37 316.05 87.37 317.03 87.37C317.4 90.09 319.3 91.45 322.75 91.45C325.84 91.45 327.47 90.18 327.66 87.64C327.47 85.64 325.11 84.19 320.58 83.28C311.68 81.83 307.41 78.02 307.77 71.84C308.14 65.67 313.13 62.22 322.75 61.49C331.65 61.68 336.37 65.13 336.92 71.84C335.01 71.84 328.34 71.84 327.38 71.84Z" id="aivO25afD"></path><path d="M352.65 47.06C352.65 47.06 352.65 47.06 352.65 47.06C352.65 52.45 352.65 55.45 352.65 56.04C352.65 56.04 352.65 56.04 352.65 56.04C345.95 56.04 342.23 56.04 341.49 56.04C341.49 56.04 341.49 56.04 341.49 56.04C341.49 50.65 341.49 47.66 341.49 47.06C341.49 47.06 341.49 47.06 341.49 47.06C348.18 47.06 351.9 47.06 352.65 47.06Z" id="bla1TAI45"></path><path d="M352.38 62.31C352.38 62.31 352.38 62.31 352.38 62.31C352.38 83.39 352.38 95.1 352.38 97.44C352.38 97.44 352.38 97.44 352.38 97.44C346 97.44 342.46 97.44 341.75 97.44C341.75 97.44 341.75 97.44 341.75 97.44C341.75 76.36 341.75 64.65 341.75 62.31C341.75 62.31 341.75 62.31 341.75 62.31C348.13 62.31 351.67 62.31 352.38 62.31Z" id="bulYtAwP7"></path><path d="M375.19 97.99C363.38 97.62 357.3 91.64 356.94 80.01C357.3 68.21 363.38 62.04 375.19 61.49C386.81 62.04 392.9 68.21 393.44 80.01C392.9 91.64 386.81 97.62 375.19 97.99ZM375.19 91.45C380.27 91.64 382.81 87.82 382.81 80.01C382.81 72.21 380.27 68.3 375.19 68.3C370.11 68.3 367.66 72.21 367.84 80.01C367.65 87.82 370.11 91.64 375.19 91.45Z" id="bud4cg6EW"></path><path d="M408.63 66.4C408.79 66.56 408.88 66.65 408.9 66.67C410.71 63.4 414.25 61.68 419.52 61.49C425.69 62.4 429.5 64.94 430.96 69.12C431.32 71.3 431.59 73.11 431.78 74.56C431.78 76.09 431.78 83.72 431.78 97.44L421.15 97.44C421.15 84.86 421.15 77.87 421.15 76.47C420.97 71.21 418.88 68.48 414.89 68.3C411.08 68.67 408.99 71.39 408.62 76.47C408.62 77.87 408.62 84.86 408.62 97.44L398.28 97.44L398.28 62.31L408.63 62.31L408.63 66.4Z" id="f8PLNMkhiC"></path><path d="M36.64 77.67C32.91 78.73 33.94 74.68 33.94 74.68C58.77 54 109.57 57.39 113.87 57.72C113.55 56.31 110.98 45.01 110.66 43.6C49.11 45.2 25.48 64.38 25.48 64.38C20.33 65.2 22.28 60.61 22.28 60.61C54.31 42.86 92.29 39.72 109.67 39.28C109.32 37.73 106.51 25.36 106.16 23.81C32.1 26.39 0.54 58.16 0.54 58.16C3.81 61.78 29.96 90.81 33.23 94.44C74.47 67.2 112.49 77.56 118.84 79.59C118.59 78.47 117.32 72.9 115.04 62.87C73.23 70.76 47.09 75.69 36.64 77.67Z" id="a2kRUIw2ho"></path><path d="M61.01 82.95C60.91 82.95 60.36 82.94 59.38 82.93L49.61 23.81L35.51 25.79L43.82 91.7C52.23 87.44 57.96 84.52 61.01 82.95Z" id="eFaTlcbWE"></path><path d="M242.82 47.06L254.53 47.06L267.6 86.82L267.88 86.82L280.95 47.06L291.57 47.06L273.05 97.44L261.34 97.44L242.82 47.06Z" id="c3XbrkvZta"></path></defs><g><g><g><use xlink:href="#a7l20IgrZ" opacity="1" fill="#036eb8" fill-opacity="1"></use><g><use xlink:href="#a7l20IgrZ" opacity="1" fill-opacity="0" stroke="#000000" stroke-width="1" stroke-opacity="0"></use></g></g><g><use xlink:href="#i7RX0Mpbjy" opacity="1" fill="#036eb8" fill-opacity="1"></use><g><use xlink:href="#i7RX0Mpbjy" opacity="1" fill-opacity="0" stroke="#000000" stroke-width="1" stroke-opacity="0"></use></g></g><g><use xlink:href="#b12vsFIFOr" opacity="1" fill="#036eb8" fill-opacity="1"></use><g><use xlink:href="#b12vsFIFOr" opacity="1" fill-opacity="0" stroke="#000000" stroke-width="1" stroke-opacity="0"></use></g></g><g><use xlink:href="#d5Cb7lFV3X" opacity="1" fill="#036eb8" fill-opacity="1"></use><g><use xlink:href="#d5Cb7lFV3X" opacity="1" fill-opacity="0" stroke="#000000" stroke-width="1" stroke-opacity="0"></use></g></g><g><use xlink:href="#e74oyPiqfO" opacity="1" fill="#f39800" fill-opacity="1"></use><g><use xlink:href="#e74oyPiqfO" opacity="1" fill-opacity="0" stroke="#000000" stroke-width="1" stroke-opacity="0"></use></g></g><g><use xlink:href="#f1nv8pCchO" opacity="1" fill="#036eb8" fill-opacity="1"></use><g><use xlink:href="#f1nv8pCchO" opacity="1" fill-opacity="0" stroke="#000000" stroke-width="1" stroke-opacity="0"></use></g></g><g><use xlink:href="#aivO25afD" opacity="1" fill="#036eb8" fill-opacity="1"></use><g><use xlink:href="#aivO25afD" opacity="1" fill-opacity="0" stroke="#000000" stroke-width="1" stroke-opacity="0"></use></g></g><g><use xlink:href="#bla1TAI45" opacity="1" fill="#f39800" fill-opacity="1"></use><g><use xlink:href="#bla1TAI45" opacity="1" fill-opacity="0" stroke="#000000" stroke-width="1" stroke-opacity="0"></use></g></g><g><use xlink:href="#bulYtAwP7" opacity="1" fill="#036eb8" fill-opacity="1"></use><g><use xlink:href="#bulYtAwP7" opacity="1" fill-opacity="0" stroke="#000000" stroke-width="1" stroke-opacity="0"></use></g></g><g><use xlink:href="#bud4cg6EW" opacity="1" fill="#036eb8" fill-opacity="1"></use><g><use xlink:href="#bud4cg6EW" opacity="1" fill-opacity="0" stroke="#000000" stroke-width="1" stroke-opacity="0"></use></g></g><g><use xlink:href="#f8PLNMkhiC" opacity="1" fill="#036eb8" fill-opacity="1"></use><g><use xlink:href="#f8PLNMkhiC" opacity="1" fill-opacity="0" stroke="#000000" stroke-width="1" stroke-opacity="0"></use></g></g><g><use xlink:href="#a2kRUIw2ho" opacity="1" fill="#f39800" fill-opacity="1"></use><g><use xlink:href="#a2kRUIw2ho" opacity="1" fill-opacity="0" stroke="#000000" stroke-width="1" stroke-opacity="0"></use></g></g><g><use xlink:href="#eFaTlcbWE" opacity="1" fill="#036eb8" fill-opacity="1"></use><g><use xlink:href="#eFaTlcbWE" opacity="1" fill-opacity="0" stroke="#000000" stroke-width="1" stroke-opacity="0"></use></g></g><g><use xlink:href="#c3XbrkvZta" opacity="1" fill="#036eb8" fill-opacity="1"></use><g><use xlink:href="#c3XbrkvZta" opacity="1" fill-opacity="0" stroke="#000000" stroke-width="1" stroke-opacity="0"></use></g></g></g></g></svg>